<svg width="82" height="27" viewBox="0 0 82 27" fill="none" xmlns="http://www.w3.org/2000/svg">
<path d="M12.692 0.539999C15.0987 0.539999 17.1633 0.869332 18.886 1.528C20.634 2.16133 22.306 3.25067 23.902 4.796L20.102 9.698C19.0887 8.53267 17.9993 7.69667 16.834 7.19C15.694 6.658 14.3767 6.392 12.882 6.392C11.7927 6.392 10.944 6.56933 10.336 6.924C9.728 7.27867 9.424 7.74733 9.424 8.33C9.424 8.786 9.74067 9.14067 10.374 9.394C11.0073 9.64733 12.0587 9.91333 13.528 10.192C15.96 10.6227 17.898 11.1927 19.342 11.902C20.8113 12.586 21.8753 13.46 22.534 14.524C23.218 15.588 23.56 16.9053 23.56 18.476C23.56 20.148 23.0787 21.5793 22.116 22.77C21.1533 23.9607 19.8487 24.86 18.202 25.468C16.5553 26.076 14.6933 26.38 12.616 26.38C9.728 26.38 7.39733 26.076 5.624 25.468C3.85067 24.8347 2.204 23.8467 0.684 22.504L4.294 17.184C5.30733 18.3747 6.43467 19.236 7.676 19.768C8.94267 20.2747 10.4247 20.528 12.122 20.528C14.4273 20.528 15.58 19.9707 15.58 18.856C15.58 18.3747 15.238 17.9947 14.554 17.716C13.8953 17.4373 12.8187 17.1587 11.324 16.88C9.29733 16.5 7.58733 16.044 6.194 15.512C4.826 14.98 3.686 14.1947 2.774 13.156C1.862 12.092 1.406 10.686 1.406 8.938C1.406 7.29133 1.84933 5.83467 2.736 4.568C3.62267 3.30133 4.91467 2.31333 6.612 1.604C8.30933 0.894666 10.336 0.539999 12.692 0.539999ZM47.5202 20.186V26H26.8102V0.919999H47.0262V6.734H34.5622V10.8H44.5182V16.196H34.5622V20.186H47.5202ZM65.3015 17.108V26H57.5115V17.108L48.6955 0.919999H56.5615L59.6015 7.19L61.4635 11.56L63.2875 7.19L66.3655 0.919999H74.0795L65.3015 17.108ZM78.6414 10.768C77.5027 10.768 76.6907 10.572 76.2054 10.18C75.7201 9.788 75.4774 9.15333 75.4774 8.276C75.4774 7.38 75.7201 6.736 76.2054 6.344C76.6907 5.952 77.5027 5.756 78.6414 5.756C79.7801 5.756 80.5921 5.952 81.0774 6.344C81.5627 6.736 81.8054 7.38 81.8054 8.276C81.8054 9.15333 81.5627 9.788 81.0774 10.18C80.5921 10.572 79.7801 10.768 78.6414 10.768ZM81.4694 26H75.8134V12H81.4694V26Z" fill="black"/>
</svg>
