<svg width="99" height="27" viewBox="0 0 99 27" fill="none" xmlns="http://www.w3.org/2000/svg">
<path d="M15.77 26H7.182L0 0.919999H8.36L11.894 19.882L15.846 0.919999H22.686L26.828 19.806L30.286 0.919999H38.342L31.16 26H22.8L20.368 15.284L19.342 9.014H19.228L18.202 15.284L15.77 26ZM48.4411 26H40.6891V0.919999H48.4411V26ZM53.0836 0.919999H66.4216C72.5776 0.945332 75.6556 3.18733 75.6556 7.646C75.6556 9.166 75.1996 10.4327 74.2876 11.446C73.3756 12.4593 72.033 13.0927 70.2596 13.346V13.384C72.261 13.6373 73.7683 14.2833 74.7816 15.322C75.795 16.3607 76.3016 17.6907 76.3016 19.312C76.3016 21.516 75.5416 23.188 74.0216 24.328C72.5016 25.4427 70.2343 26 67.2196 26H53.0836V0.919999ZM64.7876 10.876C66.7383 10.876 67.7136 10.1287 67.7136 8.634C67.7136 7.13933 66.7383 6.392 64.7876 6.392H60.5316V10.876H64.7876ZM65.4336 20.756C67.3843 20.756 68.3596 19.996 68.3596 18.476C68.3596 16.9813 67.3843 16.234 65.4336 16.234H60.5316V20.756H65.4336ZM98.2784 16.044C98.2784 16.956 98.2151 17.6907 98.0884 18.248H85.5864C85.7384 19.312 86.0804 20.0593 86.6124 20.49C87.1444 20.9207 87.8917 21.136 88.8544 21.136C90.3997 21.136 91.3497 20.528 91.7044 19.312L97.8984 21.098C97.4171 22.8207 96.3657 24.138 94.7444 25.05C93.1484 25.9367 91.1851 26.38 88.8544 26.38C85.4091 26.38 82.7744 25.5313 80.9504 23.834C79.1264 22.1113 78.2144 19.6667 78.2144 16.5C78.2144 13.3587 79.1011 10.9267 80.8744 9.204C82.6731 7.48133 85.1937 6.62 88.4364 6.62C91.6031 6.62 94.0351 7.46867 95.7324 9.166C97.4297 10.838 98.2784 13.1307 98.2784 16.044ZM88.4744 11.826C87.6384 11.826 86.9797 12.0667 86.4984 12.548C86.0424 13.0293 85.7384 13.8147 85.5864 14.904H91.0964C90.9697 13.8653 90.6911 13.0927 90.2604 12.586C89.8551 12.0793 89.2597 11.826 88.4744 11.826Z" fill="black"/>
</svg>
